<?xml version="1.0" standalone="no"?>
<!DOCTYPE svg PUBLIC "-//W3C//DTD SVG 20010904//EN" "http://www.w3.org/TR/2001/REC-SVG-20010904/DTD/svg10.dtd">
<!-- Created using Krita: https://krita.org -->
<svg xmlns="http://www.w3.org/2000/svg" 
    xmlns:xlink="http://www.w3.org/1999/xlink"
    xmlns:krita="http://krita.org/namespaces/svg/krita"
    xmlns:sodipodi="http://sodipodi.sourceforge.net/DTD/sodipodi-0.dtd"
    width="245.76pt"
    height="96pt"
    viewBox="0 0 245.76 96">
<defs/>
<g id="l3AmkLdoGl1ttClqglwgpKU" transform="matrix(0.0354707438258046 0 0 0.0342790341037156 57.1243053959639 24.0607221619265)" fill="none">
  <g id="group0" fill="none">
   <path id="psQMclClF" transform="translate(1298.99999999998, 520.000000000004)" fill="#001c1f" stroke-opacity="0" stroke="#000000" stroke-width="0" stroke-linecap="square" stroke-linejoin="bevel" d="M208 820C117 797 66 756 29 675C7 627 6 614 3 313L0 0L100 0L201 0L201 270C201 571 205 594 263 630C310 660 411 654 463 620C531 575 531 573 531 271L531 0L631 0L731 0L731 400L731 800L631 800L531 800L531 763C531 729 530 728 513 743C504 752 464 774 426 791C351 827 276 836 208 820Z" sodipodi:nodetypes="ccccccccccccccccccccc"/>
   <path id="pxsp6VQIb" transform="translate(2520.24624431309, 179.999999999999)" fill="#001c1f" stroke-opacity="0" stroke="#000000" stroke-width="0" stroke-linecap="square" stroke-linejoin="bevel" d="M264.754 1156C165.754 1125 84.7538 1058 41.7538 973C-17.2462 857 -13.2462 654 50.7538 528C80.7538 469 150.754 398 211.754 365C256.754 340 278.754 335 355.754 332C454.754 327 496.754 337 554.754 375L589.754 399L589.754 200L589.754 0L689.754 0L789.754 0L791.754 570L794.754 1140L697.754 1140C599.754 1140 599.754 1140 599.754 1115L599.754 1090L560.754 1116C482.754 1167 355.754 1185 264.754 1156ZM496.754 979C519.754 968 549.754 944 561.754 927C582.754 897 584.754 885 584.754 745C584.754 606 582.754 593 562.754 564C513.754 496 390.754 470 309.754 512C226.754 554 194.754 633 201.754 770C206.754 858 227.754 917 266.754 952C321.754 1002 424.754 1014 496.754 979Z" sodipodi:nodetypes="cccccccccccccccccccccccccc"/>
   <path id="p37S2aqHU" transform="translate(4160.00000000003, 179.999999999999)" fill="#001c1f" stroke-opacity="0" stroke="#000000" stroke-width="0" stroke-linecap="square" stroke-linejoin="bevel" d="M0 1146C0 1143 24 1103 53 1058C82 1012 161 884 229 773L352 570L184 293C92 140 15 12 13 7C11 3 66 0 137 0L265 0L323 104C355 162 407 254 439 309L498 411L616 206L735 0L863 0L991 0L979 23C972 35 891 163 798 307C706 451 630 572 630 574C630 577 699 684 784 812C868 940 950 1066 965 1093L992 1140L868 1140L745 1140L630 953C567 850 508 758 500 748C486 732 475 747 360 938L235 1145L117 1148C53 1149 0 1148 0 1146Z" sodipodi:nodetypes="ccccccccccccccccccccccccccccc"/>
   <path id="pBvSso891" transform="translate(130.000000000001, 189.999999999999)" fill="#001c1f" stroke-opacity="0" stroke="#000000" stroke-width="0" stroke-linecap="square" stroke-linejoin="bevel" d="M0 565L0 0L335 0L670 0L670 95L670 190L438 192L205 195L202 338L199 480L405 480L610 480L610 570L610 660L405 660L200 660L200 895L200 1130L100 1130L0 1130Z" sodipodi:nodetypes="ccccccccccccccccccccc"/>
   <path id="p4ZJERGAu" transform="translate(930.000000000004, 179.999999999999)" fill="#001c1f" stroke-opacity="0" stroke="#000000" stroke-width="0" stroke-linecap="square" stroke-linejoin="bevel" d="M0 570L0 0L100 0L200 0L200 570L200 1140L100 1140L0 1140Z" sodipodi:nodetypes="ccccccccc"/>
   <path id="paZkq7Utx" transform="translate(2200.00000000002, 520.000000000004)" fill="#001c1f" stroke-opacity="0" stroke="#000000" stroke-width="0" stroke-linecap="square" stroke-linejoin="bevel" d="M0 400L0 0L100 0L200 0L200 400L200 800L100 800L0 800Z" sodipodi:nodetypes="ccccccccc"/>
   <path id="p2UcvgNT2" transform="translate(3490.00000000002, 189.999999999999)" fill="#001c1f" stroke-opacity="0" stroke="#000000" stroke-width="0" stroke-linecap="square" stroke-linejoin="bevel" d="M0 565L0 0L325 0L650 0L650 95L650 190L430 190L210 190L210 335L210 480L410 480L610 480L610 570L610 660L410 660L210 660L210 895L210 1130L105 1130L0 1130Z" sodipodi:nodetypes="ccccccccccccccccccccc"/>
   <path id="pzBqno5FA" transform="translate(2192.73584905661, 209.717963358954)" fill="#001c1f" stroke-opacity="0" stroke="#000000" stroke-width="0" stroke-linecap="square" stroke-linejoin="bevel" d="M41.2642 195.282C-12.7358 158.282 -13.7358 70.282 38.2642 26.282C110.264 -34.718 213.264 17.282 211.264 112.282C209.264 171.282 168.264 210.282 107.264 210.282C82.2642 210.282 52.2642 203.282 41.2642 195.282Z" sodipodi:nodetypes="ccccc"/>
  </g>
 </g><g id="group1" transform="translate(7.13368200568012, 12.2336866512713)" fill="none">
  <path id="pl4lybhHE" transform="matrix(0.0224624459332555 0 0 0.0224624459332555 3.5527136788005e-15 -8.88178419700125e-16)" fill="#1aa3af" stroke-opacity="0" stroke="#000000" stroke-width="0" stroke-linecap="square" stroke-linejoin="bevel" d="M938.366 3030.3C845.366 3016.3 707.366 2972.3 615.366 2926.3C111.366 2675.3 -116.634 2133.3 58.366 1601.3C135.366 1366.3 264.366 1153.3 574.366 746.304C744.366 522.304 913.366 279.304 999.366 134.304C1103.37 -39.6957 1118.37 -41.6957 1206.37 111.304C1290.37 256.304 1449.37 491.304 1572.37 651.304C1816.37 969.304 1921.37 1121.3 2026.37 1307.3C2082.37 1406.3 2155.37 1580.3 2181.37 1676.3C2225.37 1839.3 2228.37 2048.3 2189.37 2207.3C2086.37 2624.3 1724.37 2956.3 1297.37 3026.3C1245.37 3034.3 1195.37 3041.3 1186.37 3041.3C1169.37 3041.3 1168.37 3015.3 1168.37 2636.3C1168.37 2319.3 1173.71 2231.3 1171.52 2229.9C1207.33 2231.24 1336.37 2236.18 1404.65 2215.9C1443.65 2189.9 1437.37 2141.3 1439.37 1987.3C1427.37 1784.3 1439.37 1793.3 1505.37 1789.3C1560.37 1786.3 1560.37 1786.3 1579.37 1822.3C1649.37 1961.3 1849.37 1958.3 1917.37 1818.3C1981.37 1685.3 1903.37 1543.3 1759.37 1533.3C1679.37 1527.3 1627.37 1554.3 1590.37 1621.3C1562.37 1672.3 1573.62 1682.24 1488.37 1681.3C1383.74 1682.71 1384.37 1698.3 1358.37 1725.3C1337.37 1749.3 1335.37 1759.3 1330.37 1930.3L1329.35 2119.98L1273.74 2124.43C1253.07 2124.43 1217.95 2124.05 1168.37 2123.3L1168.37 1657.3L1168.37 1191.3L1208.37 1171.3C1252.37 1149.3 1296.37 1084.3 1305.37 1028.3C1316.37 957.304 1262.37 857.304 1193.37 824.304C1126.37 790.304 1040.37 802.304 982.366 853.304C872.366 949.304 893.366 1119.3 1023.37 1184.3L1054.37 1199.3L1053.37 1433.3L1053.37 1666.3L905.366 1671.3L755.428 1670.68L743.366 1646.3C726.366 1606.3 693.366 1576.3 634.366 1551.3C475.366 1480.3 319.366 1657.3 399.366 1816.3C442.366 1902.3 529.366 1945.3 612.366 1921.3C665.366 1907.3 733.366 1852.3 742.366 1818.3C747.366 1796.3 760.928 1784.87 786.866 1780.74C829.866 1777.74 935.366 1781.3 977.366 1781.3L1053.37 1781.3L1054.37 2095.3C1056.37 2460.3 1073.37 2421.3 917.366 2421.3L820.366 2421.3L808.366 2392.3C793.366 2354.3 752.366 2316.3 706.366 2297.3C580.366 2244.3 438.366 2339.3 438.366 2476.3C438.366 2538.3 457.366 2579.3 506.366 2623.3C597.366 2705.3 753.366 2678.3 808.366 2571.3L828.366 2531.3L943.366 2531.3L1057.9 2531.3L1058.37 2786.3L1058.37 3041.3L1026.37 3040.3C1008.37 3039.3 968.366 3035.3 938.366 3030.3Z" sodipodi:nodetypes="cccccccccccccccccccccccccccccccccccccccccccccccccccccccccccccc"/>
  <path id="ppv9wQOmc" transform="matrix(0.0224624459332555 0 0 0.0224624459332555 12.4143797347263 53.8807517779656)" fill="#1aa3af" stroke-opacity="0" stroke="#000000" stroke-width="0" stroke-linecap="square" stroke-linejoin="bevel" d="M34.459 143.366C-35.541 88.3662 8.45896 -6.63375 100.459 0.366247C128.459 2.36625 165.459 48.3662 165.459 80.3662C164.459 145.366 85.459 183.366 34.459 143.366Z" sodipodi:nodetypes="cccc"/>
  <path id="pzXnL7Hru" transform="matrix(0.0224624459332555 0 0 0.0224624459332555 10.9621343400582 37.0870690269182)" fill="#1aa3af" stroke-opacity="0" stroke="#000000" stroke-width="0" stroke-linecap="square" stroke-linejoin="bevel" d="M25.1111 135C-26.8889 84 7.11111 0 79.1111 0C121.111 0 160.111 38 160.111 80C160.111 99 151.111 120 135.111 135C120.111 151 99.1111 160 80.1111 160C61.1111 160 40.1111 151 25.1111 135Z" sodipodi:nodetypes="cccccc"/>
  <path id="pV5e1OphT" transform="matrix(0.0224624459332555 0 0 0.0224624459332555 37.3623167349279 36.8620508303679)" fill="#1aa3af" stroke-opacity="0" stroke="#000000" stroke-width="0" stroke-linecap="square" stroke-linejoin="bevel" d="M31.808 159.018C3.80801 143.018 -7.19199 102.018 4.80801 64.0175C26.808 -0.982471 94.808 -20.9825 139.808 25.0175C192.808 77.0175 157.808 170.018 86.808 170.018C66.808 170.018 41.808 165.018 31.808 159.018Z" sodipodi:nodetypes="ccccc"/>
  <path id="pGZ09EsXZ" transform="matrix(0.0224624459332555 0 0 0.0224624459332555 23.0857365949647 20.7023841991893)" fill="#1aa3af" stroke-opacity="0" stroke="#000000" stroke-width="0" stroke-linecap="square" stroke-linejoin="bevel" d="M65.3835 161.426C3.3835 148.426 -22.6165 64.4257 23.3835 21.4257C74.3835 -26.5743 160.384 11.4257 160.384 82.4257C160.384 131.426 112.384 171.426 65.3835 161.426Z" sodipodi:nodetypes="cccc"/>
 </g>
</svg>
